<svg xmlns="http://www.w3.org/2000/svg" width="420" height="350" viewBox="0 0 420 350"><title>feature</title><g style="isolation:isolate"><polygon fill="#a3b7d6" points="344 106.23 376 124.71 376.06 87.79 344 69.28 344 106.23"/><polygon fill="#c8d4e6" points="376 87.76 408 69.28 408 106.23 376 124.71 376 87.76"/><polygon fill="#ffb3cc" points="408 69.28 376 50.81 344 69.28 376 87.76 408 69.28"/><polygon fill="#fa8aae" points="408 69.28 408 78.52 375.97 97.01 376 87.76 408 69.28"/><polygon fill="#f21860" points="375.97 97.01 344 78.52 344 69.28 376 87.76 375.97 97.01"/><polygon fill="#f21860" points="375.97 69.52 400 37.2 376.06 51.08 352 37.2 375.97 69.52"/><polygon fill="#ffb3cc" points="400 37.2 375.97 13.97 352 37.2 376.06 51.08 400 37.2"/><polygon fill="#fa8aae" points="376.06 51.08 375.97 13.97 400 37.2 376.06 51.08"/><polygon fill="#f54680" points="376.06 51.08 375.97 69.52 400 37.2 376.06 51.08"/><path fill="#a3b7d6" d="M362.4,107.54a4,4,0,0,1-1.91-.6,11,11,0,0,1-4.91-8.46c0-1.77.75-2.82,2-2.82a4,4,0,0,1,1.92.6,10.93,10.93,0,0,1,4.91,8.45c0,1.77-.75,2.83-2,2.83h0Z"/><path fill="#fff" d="M357.59,96.66a3.06,3.06,0,0,1,1.42.47,10,10,0,0,1,4.4,7.58c0,0.68-.13,1.83-1,1.83a3,3,0,0,1-1.41-.47,10,10,0,0,1-4.41-7.59c0-.68.13-1.82,1-1.82m0-2c-1.78,0-3,1.4-3,3.82A12,12,0,0,0,360,107.8a4.9,4.9,0,0,0,2.41.74c1.77,0,3-1.4,3-3.83A11.89,11.89,0,0,0,360,95.39a4.92,4.92,0,0,0-2.41-.73h0Z"/><line x1="360.03" x2="316.39" y1="101.6" y2="127.24" fill="none" stroke="#f21860" stroke-linecap="round" stroke-linejoin="round" stroke-width="2"/><polygon fill="#a3b7d6" points="40 143.17 40 87.74 88 115.46 88 170.88 40 143.17"/><polygon fill="#edf1f7" points="40 87.74 88 60.03 136 87.74 88 115.46 40 87.74"/><polygon fill="#c8d4e6" points="136 87.74 88 115.46 88 170.88 136 143.17 136 87.74"/><polygon fill="#8ae7fa" points="136 87.74 88 115.46 88 133.97 136 106.23 136 87.74"/><polygon fill="#18cef2" points="88 133.97 40 106.22 40 87.74 88 115.46 88 133.97"/><polygon fill="#b3f2ff" points="136 87.74 88 60.03 40 87.74 88 115.46 136 87.74"/><polygon fill="#a3b7d6" points="192 147.8 192 92.36 248 124.74 248.03 180.07 192 147.8"/><polygon fill="#edf1f7" points="200 78.52 248 50.81 296 78.52 248 106.23 200 78.52"/><polygon fill="#c8d4e6" points="303.94 92.37 248 124.74 248.03 180.07 303.94 147.8 303.94 92.37"/><polygon fill="#af8afa" points="304.06 73.87 248 106.23 248 124.74 304.06 92.36 304.06 73.87"/><polygon fill="#8518f2" points="248 124.74 192 92.36 192 73.9 248 106.23 248 124.74"/><polygon fill="#ccb3ff" points="304.06 73.87 248 41.57 192 73.9 248 106.23 304.06 73.87"/><polygon fill="#8ae7fa" points="312 235.56 312 272.51 224 323.32 224 286.37 312 235.56"/><polygon fill="#18cef2" points="224 323.32 136 272.51 136 235.55 224 286.37 224 323.32"/><polygon fill="#af8afa" points="312 198.64 312 235.59 224 286.4 224 249.45 312 198.64"/><polygon fill="#8518f2" points="224 286.4 136 235.59 136 198.64 224 249.45 224 286.4"/><polygon fill="#fa8aae" points="312 161.66 312 198.61 224 249.41 224 212.46 312 161.66"/><polygon fill="#f21860" points="224 249.41 136 198.61 136 161.65 224 212.46 224 249.41"/><polygon fill="#ffb3cc" points="224 212.46 136 161.65 224 110.85 312 161.66 224 212.46"/><polygon fill="#a3b7d6" points="64 314.06 64 258.63 112 286.34 112 341.77 64 314.06"/><polygon fill="#edf1f7" points="64 258.63 112 230.92 160 258.63 112 286.34 64 258.63"/><polygon fill="#c8d4e6" points="160 258.63 112 286.34 112 341.77 160 314.06 160 258.63"/><polygon fill="#fa8aae" points="160 258.63 112 286.34 112 304.85 160 277.12 160 258.63"/><polygon fill="#f21860" points="112 304.85 64 277.1 64 258.63 112 286.34 112 304.85"/><polygon fill="#ffb3cc" points="160 258.63 112 230.92 64 258.63 112 286.34 160 258.63"/><polygon fill="#b3f2ff" points="78.88 34.01 68.05 40.39 68.05 49.76 80 56.39 87.99 56.39 87.99 34.01 78.88 34.01"/><polygon fill="#18cef2" points="88 87.76 61.5 60.76 61.5 47.63 68.05 40.39 88 41.57 88 87.76"/><polygon fill="#b3f2ff" points="78.88 34.01 68.05 40.39 68.05 49.76 80 56.39 87.99 56.39 87.99 34.01 78.88 34.01"/><polygon fill="#18cef2" points="77.13 70.99 87.99 70.99 87.99 56.39 80 56.39 77.13 70.99"/><polygon fill="#8ae7fa" points="77.13 70.99 61.5 60.76 68.05 49.76 80 56.39 77.13 70.99"/><polygon fill="#18cef2" points="88 87.76 61.5 60.76 61.5 47.63 68.05 40.39 88 41.57 88 87.76"/><polygon fill="#46d8f5" points="77.13 70.99 61.5 60.76 68.05 49.76 80 56.39 77.13 70.99"/><polygon fill="#b3f2ff" points="97.13 34.01 107.95 40.39 107.95 49.76 96 56.39 88.01 56.39 88.01 34.01 97.13 34.01"/><polygon fill="#18cef2" points="88 87.76 114.5 60.76 114.5 47.63 107.95 40.39 88 41.57 88 87.76"/><polygon fill="#b3f2ff" points="97.13 34.01 107.95 40.39 107.95 49.76 96 56.39 88.01 56.39 88.01 34.01 97.13 34.01"/><polygon fill="#18cef2" points="98.87 70.99 88.01 70.99 88.01 56.39 96 56.39 98.87 70.99"/><polygon fill="#8ae7fa" points="98.87 70.99 114.5 60.76 107.95 49.76 96 56.39 98.87 70.99"/><polygon fill="#b3f2ff" points="88 87.76 114.5 60.76 114.5 47.63 107.95 40.39 88 41.57 88 87.76"/><polygon fill="#b3f2ff" points="97.13 34.01 87.99 34.01 78.88 34.01 68.05 40.39 68.05 49.76 80 56.39 87.01 56.39 87.99 56.39 96 56.39 107.95 49.76 107.95 40.39 97.13 34.01"/><polygon fill="#74e2f7" points="98.87 70.99 96 56.39 80 56.39 77.13 70.99 98.87 70.99"/><polygon fill="#8ae7fa" points="98.87 70.99 114.5 60.76 107.95 49.76 96 56.39 98.87 70.99"/><polygon fill="#74e2f7" points="114.5 60.76 88 87.76 98.87 70.99 114.5 60.76"/><polygon fill="#46d8f5" points="98.87 70.99 88 87.76 77.13 70.99 98.87 70.99"/><polygon fill="#af8afa" points="248.03 60.16 256 55.53 256 27.73 248.03 32.33 248.03 60.16"/><polygon fill="#8518f2" points="248.03 60.16 240 55.53 240 27.73 248.03 32.33 248.03 60.16"/><polygon fill="#d6c2ff" points="256 27.73 248.03 23.13 240 27.73 248.03 32.33 256 27.73"/><polygon fill="#af8afa" points="232.09 69.32 240.06 64.69 240.06 36.89 232.09 41.49 232.09 69.32"/><polygon fill="#8518f2" points="232.09 69.32 224.06 64.69 224.06 36.89 232.09 41.49 232.09 69.32"/><polygon fill="#d6c2ff" points="240.06 36.89 232.09 32.29 224.06 36.89 232.09 41.49 240.06 36.89"/><polygon fill="#af8afa" points="247.91 78.53 255.88 73.89 256 27.73 248 32.33 247.91 78.53"/><polygon fill="#8518f2" points="247.91 78.53 239.88 73.89 240.06 27.73 248 32.33 247.91 78.53"/><polygon fill="#d6c2ff" points="256 27.73 248.03 23.13 240.06 27.73 248 32.33 256 27.73"/><polygon fill="#af8afa" points="248.03 97.01 256 92.38 256 73.87 248.03 78.47 248.03 97.01"/><polygon fill="#8518f2" points="248.03 97.01 240 92.38 240 73.87 248.03 78.47 248.03 97.01"/><polygon fill="#d6c2ff" points="256 73.87 248.03 69.27 240 73.87 248.03 78.47 256 73.87"/><polygon fill="#af8afa" points="232.03 87.74 240 83.1 240 55.39 232.03 59.99 232.03 87.74"/><polygon fill="#8518f2" points="232.03 87.74 224 83.1 224 55.39 232.03 59.99 232.03 87.74"/><polygon fill="#d6c2ff" points="240 55.39 232.03 50.79 224 55.39 232.03 59.99 240 55.39"/><polygon fill="#af8afa" points="263.97 69.28 271.94 64.64 271.94 46.19 263.97 50.79 263.97 69.28"/><polygon fill="#8518f2" points="263.97 69.28 255.94 64.64 255.94 46.19 263.97 50.79 263.97 69.28"/><polygon fill="#d6c2ff" points="271.94 46.19 263.97 41.59 255.94 46.19 263.97 50.79 271.94 46.19"/><polygon fill="#af8afa" points="216.03 78.54 224 73.9 224 46.19 216.03 50.79 216.03 78.54"/><polygon fill="#8518f2" points="216.03 78.54 208 73.9 208 46.19 216.03 50.79 216.03 78.54"/><polygon fill="#d6c2ff" points="224 46.19 216.03 41.59 208 46.19 216.03 50.79 224 46.19"/><polygon fill="#af8afa" points="264.03 87.74 272 83.1 272 64.66 264.03 69.26 264.03 87.74"/><polygon fill="#8518f2" points="264.03 87.74 256 83.1 256 64.66 264.03 69.26 264.03 87.74"/><polygon fill="#d6c2ff" points="272 64.66 264.03 60.06 256 64.66 264.03 69.26 272 64.66"/><polygon fill="#af8afa" points="280.03 78.54 288 73.9 288 36.93 280.03 41.53 280.03 78.54"/><polygon fill="#8518f2" points="280.03 78.54 272 73.9 272 36.93 280.03 41.53 280.03 78.54"/><polygon fill="#d6c2ff" points="288 36.93 280.03 32.33 272 36.93 280.03 41.53 288 36.93"/><path fill="#c8d4e6" d="M108.45,147.38c-2.74,0-3-3.2-3-4.19,0-4.53,3.32-10.27,7.28-12.54a5.9,5.9,0,0,1,2.84-.89c1.86,0,3,1.56,3,4.18,0,4.52-3.33,10.26-7.28,12.54A5.87,5.87,0,0,1,108.45,147.38Z"/><path fill="#fff" d="M115.59,131.27c1.27,0,1.47,1.68,1.47,2.68,0,4-3.05,9.23-6.53,11.24a4.47,4.47,0,0,1-2.08.69c-1.27,0-1.46-1.69-1.46-2.69,0-4,3-9.23,6.52-11.23a4.51,4.51,0,0,1,2.09-.69m0-3a7.31,7.31,0,0,0-3.58,1.08c-4.43,2.54-8,8.76-8,13.84,0,3.6,1.83,5.68,4.46,5.68a7.27,7.27,0,0,0,3.58-1.09c4.42-2.55,8-8.78,8-13.84,0-3.59-1.82-5.68-4.47-5.68h0Z"/><path fill="#af8afa" d="M268.43,249.59c-2.74,0-3-3.2-3-4.19,0-4.53,3.32-10.27,7.28-12.54a5.9,5.9,0,0,1,2.84-.89c1.86,0,3,1.56,3,4.18,0,4.52-3.33,10.26-7.28,12.54A5.87,5.87,0,0,1,268.43,249.59Z"/><path fill="#fff" d="M275.58,233.49c1.27,0,1.47,1.68,1.47,2.68,0,4-3.05,9.23-6.53,11.24a4.47,4.47,0,0,1-2.08.69c-1.27,0-1.46-1.69-1.46-2.69,0-4,3-9.23,6.52-11.23a4.51,4.51,0,0,1,2.09-.69m0-3a7.31,7.31,0,0,0-3.58,1.08c-4.43,2.54-8,8.76-8,13.84,0,3.6,1.83,5.68,4.46,5.68A7.27,7.27,0,0,0,272,250c4.42-2.55,8-8.78,8-13.84,0-3.59-1.82-5.68-4.47-5.68h0Z"/><path fill="#f21860" d="M163.34,202.78a5.86,5.86,0,0,1-2.83-.89c-3.95-2.28-7.28-8-7.28-12.54,0-2.61,1.11-4.18,3-4.18a5.9,5.9,0,0,1,2.84.89c4,2.26,7.29,8,7.28,12.53,0,1-.22,4.19-3,4.19h0Z"/><path fill="#fff" d="M156.19,186.68a4.51,4.51,0,0,1,2.09.69c3.48,2,6.53,7.24,6.52,11.23,0,1-.19,2.69-1.46,2.69a4.47,4.47,0,0,1-2.08-.69c-3.48-2-6.53-7.26-6.53-11.24,0-1,.19-2.68,1.47-2.68m0-3c-2.64,0-4.47,2.08-4.47,5.68,0,5.06,3.61,11.29,8,13.84a7.27,7.27,0,0,0,3.58,1.09c2.63,0,4.46-2.09,4.46-5.68,0-5.07-3.6-11.3-8-13.84a7.31,7.31,0,0,0-3.58-1.08h0Z"/><path fill="#18cef2" d="M211.61,304.41a5.86,5.86,0,0,1-2.83-.89c-3.95-2.28-7.28-8-7.28-12.54,0-2.61,1.11-4.18,3-4.18a5.9,5.9,0,0,1,2.84.89c4,2.27,7.29,8,7.28,12.54,0,1-.22,4.19-3,4.19h0Z"/><path fill="#fff" d="M204.47,288.3a4.51,4.51,0,0,1,2.09.69c3.48,2,6.53,7.24,6.52,11.23,0,1-.19,2.69-1.46,2.69a4.47,4.47,0,0,1-2.08-.69c-3.48-2-6.53-7.26-6.53-11.24,0-1,.19-2.68,1.47-2.68m0-3c-2.64,0-4.47,2.08-4.47,5.68,0,5.06,3.61,11.29,8,13.84a7.27,7.27,0,0,0,3.58,1.09c2.63,0,4.46-2.09,4.46-5.68,0-5.07-3.6-11.3-8-13.84a7.31,7.31,0,0,0-3.58-1.08h0Z"/><path fill="none" stroke="#18cef2" stroke-linecap="round" stroke-linejoin="round" stroke-width="2" d="M112,138.58L130,149a4,4,0,0,1,0,6.93l-20,11.54a4,4,0,0,0,0,6.93l36.95,21.4a10,10,0,0,0,10,0l2.83-1.63"/><polyline fill="none" stroke="#18cef2" stroke-linecap="round" stroke-linejoin="round" stroke-width="2" points="352 240.19 319.97 221.72 280.03 244.78 271.94 240.14"/><polygon fill="#a3b7d6" points="264 314.7 296 333.17 296.06 296.26 264 277.75 264 314.7"/><polygon fill="#c8d4e6" points="296 296.22 328 277.75 328 314.7 296 333.17 296 296.22"/><polygon fill="#ccb3ff" points="328 277.75 296 259.27 264 277.75 296 296.22 328 277.75"/><polygon fill="#af8afa" points="328 277.75 328 286.99 295.97 305.48 296 296.22 328 277.75"/><polygon fill="#8518f2" points="295.97 305.48 264 286.99 264 277.75 296 296.22 295.97 305.48"/><path fill="#a3b7d6" d="M282.4,315.63a4,4,0,0,1-1.91-.6,11,11,0,0,1-4.91-8.46c0-1.77.75-2.82,2-2.82a4,4,0,0,1,1.92.6,10.93,10.93,0,0,1,4.91,8.45c0,1.77-.75,2.83-2,2.83h0Z"/><path fill="#fff" d="M277.59,304.75a3.06,3.06,0,0,1,1.42.47,10,10,0,0,1,4.4,7.58c0,0.68-.13,1.83-1,1.83a3,3,0,0,1-1.41-.47,10,10,0,0,1-4.41-7.59c0-.68.13-1.82,1-1.82m0-2c-1.78,0-3,1.4-3,3.82a12,12,0,0,0,5.41,9.32,4.9,4.9,0,0,0,2.41.74c1.77,0,3-1.4,3-3.83a11.89,11.89,0,0,0-5.41-9.32,4.92,4.92,0,0,0-2.41-.73h0Z"/><polygon fill="#fa8aae" points="296.06 286.95 295.97 231.55 311.99 277.74 296.06 286.95"/><polygon fill="#f21860" points="296.06 286.95 280.03 277.76 295.97 231.55 296.06 286.95"/><polygon fill="#af8afa" points="309.32 270.06 295.97 277.76 282.68 270.06 280.03 277.76 296.06 286.95 311.99 277.74 309.32 270.06" style="mix-blend-mode:multiply"/><polygon fill="#af8afa" points="309.32 270.06 306.65 262.36 295.97 268.49 285.35 262.36 282.68 270.06 295.97 277.76 309.32 270.06" opacity=".75" style="mix-blend-mode:multiply"/><polygon fill="#af8afa" points="306.65 262.36 303.98 254.64 296 259.27 287.98 254.64 285.35 262.36 295.97 268.49 306.65 262.36" opacity=".5" style="mix-blend-mode:multiply"/><polygon fill="#af8afa" points="303.98 254.64 301.31 246.97 295.97 250.05 290.66 246.95 287.98 254.64 296 259.27 303.98 254.64" opacity=".25" style="mix-blend-mode:multiply"/><path fill="none" stroke="#8518f2" stroke-linecap="round" stroke-miterlimit="10" stroke-width="2" d="M280,309.48l-52.07,30a8,8,0,0,1-8,0l-39.46-22.78a3,3,0,0,1,0-5.2L208,295.63"/><polygon fill="#a3b7d6" points="264 207.85 264 152.42 312 180.13 312 235.56 264 207.85"/><polygon fill="#edf1f7" points="264 152.42 312 124.71 360 152.42 312 180.13 264 152.42"/><polygon fill="#c8d4e6" points="360 152.42 312 180.13 312 235.56 360 207.85 360 152.42"/><polygon fill="#8ae7fa" points="360 152.42 312 180.13 312 198.64 360 170.91 360 152.42"/><polygon fill="#18cef2" points="312 198.64 264 170.89 264 152.42 312 180.13 312 198.64"/><polygon fill="#b3f2ff" points="360 152.42 312 124.71 264 152.42 312 180.13 360 152.42"/><polygon fill="#18cef2" points="348 152.42 344 154.73 340 152.42 344 150.11 348 152.42"/><polygon fill="#18cef2" points="316 145.49 300 154.72 296 152.42 312 143.18 316 145.49"/><polygon fill="#18cef2" points="313.79 153.43 305.79 158.04 301.79 155.74 309.79 151.12 313.79 153.43"/><polygon fill="#18cef2" points="324.73 154.3 312.05 161.65 308.05 159.34 320.73 151.99 324.73 154.3"/><polygon fill="#18cef2" points="316 133.94 312 136.25 308 133.94 312 131.63 316 133.94"/><polygon fill="#18cef2" points="284 152.42 280 154.73 276 152.42 280 150.11 284 152.42"/><polygon fill="#18cef2" points="316 170.89 312 173.2 308 170.89 312 168.58 316 170.89"/><polygon fill="none" stroke="#18cef2" stroke-linecap="round" stroke-linejoin="round" points="344 152.42 312 170.89 280 152.42 312 133.94 344 152.42"/><path fill="#c8d4e6" d="M332.66,212c-2.74,0-3-3.2-3-4.19,0-4.53,3.32-10.27,7.28-12.53a5.9,5.9,0,0,1,2.84-.89c1.86,0,3,1.56,3,4.18,0,4.52-3.33,10.26-7.28,12.54A5.86,5.86,0,0,1,332.66,212Z"/><path fill="#fff" d="M339.81,195.94c1.27,0,1.47,1.68,1.47,2.68,0,4-3.05,9.23-6.53,11.24a4.47,4.47,0,0,1-2.08.69c-1.27,0-1.46-1.69-1.46-2.69,0-4,3-9.23,6.52-11.23a4.51,4.51,0,0,1,2.09-.69m0-3a7.31,7.31,0,0,0-3.58,1.08c-4.43,2.54-8,8.76-8,13.84,0,3.6,1.83,5.68,4.46,5.68a7.27,7.27,0,0,0,3.58-1.09c4.42-2.55,8-8.78,8-13.84,0-3.59-1.82-5.68-4.47-5.68h0Z"/><path fill="none" stroke="#18cef2" stroke-linecap="round" stroke-linejoin="round" stroke-width="2" d="M336,203.25l27,15.57a10,10,0,0,1,5,8.66v15a4,4,0,0,1-6,3.47l-10-5.77"/><line x1="88.06" x2="56.06" y1="69.32" y2="87.72" fill="#8ae7fa"/></g></svg>