<svg xmlns="http://www.w3.org/2000/svg" xmlns:xlink="http://www.w3.org/1999/xlink" width="420" height="350" viewBox="0 0 420 350"><defs><linearGradient id="a" x1="328" x2="328" y1="20.89" y2="177.95" gradientUnits="userSpaceOnUse"><stop offset="0" stop-color="#fff"/><stop offset="1" stop-color="#18cef2"/></linearGradient><linearGradient id="b" x1="362.69" x2="393.59" y1="95.85" y2="165.5" gradientUnits="userSpaceOnUse"><stop offset="0" stop-color="#b1e5f2" stop-opacity="0"/><stop offset="1" stop-color="#f2f2f2"/></linearGradient><linearGradient id="c" x1="267.39" x2="326.39" y1="226.73" y2="208.07" gradientUnits="userSpaceOnUse"><stop offset="0" stop-color="#b1e5f2" stop-opacity="0"/><stop offset="1" stop-color="#b3f2ff"/></linearGradient><linearGradient id="d" x1="234.9" x2="297.57" y1="206.01" y2="170.34" xlink:href="#c"/></defs><title>feature</title><polygon fill="#5d779b" points="416 235.56 416 124.71 328 175.52 328 286.37 416 235.56"/><polygon fill="#334866" points="328 175.52 240 124.71 240 235.56 328 286.37 328 175.52"/><polygon fill="#a3b7d6" points="416 124.71 328 73.9 240 124.71 328 175.52 416 124.71"/><polygon fill="#18cef2" points="304 226.31 304.1 189.31 264 166.28 264 203.24 304 226.31"/><polygon fill="#b3f2ff" points="384.1 124.77 328 157.07 271.9 124.77 328 92.38 384.1 124.77"/><polygon fill="#74e2f7" points="328 92.38 328 110.86 368.1 133.98 384.1 124.77 328 92.38"/><polygon fill="#46d8f5" points="328 110.86 328 129.32 352.1 143.24 368.1 133.98 328 110.86"/><polygon fill="#18cef2" points="328 129.32 327.98 147.82 336.1 152.48 352.1 143.24 328 129.32"/><polygon fill="#129bb5" points="328 157.07 336.1 152.48 327.98 147.82 328 157.07"/><polygon fill="#d1f7ff" points="328 92.38 271.9 124.77 288.1 134.1 328 110.86 328 92.38"/><polygon fill="#b3f2ff" points="328 129.32 328 110.86 288.1 134.1 303.94 143.22 328 129.32"/><polygon fill="#8ae7fa" points="328 129.32 327.98 147.82 320.1 152.52 303.94 143.22 328 129.32"/><polygon fill="#18cef2" points="327.98 147.82 328 157.07 320.1 152.52 327.98 147.82"/><path fill="#c8d4e6" d="M296,230.94h0l-32-18.44-24,13.79L39.95,110.82l-32,18.49v0L0,124.71v9.24l7.94,4.59h0L216,258.61a48,48,0,0,0,48,0l32-18.44h0l8-4.62v-9.25Z"/><path fill="#edf1f7" d="M0,124.71L216,249.36a48,48,0,0,0,48,0l40-23,0.1-37L296,184.76l-56,32.32L40,101.61Z"/><polygon fill="#f21860" points="188.54 180.12 188.56 228.39 157.33 210.21 188.54 180.12"/><polygon fill="#ffb3cc" points="188.54 180.12 220.05 210.21 188.56 228.39 188.54 180.12"/><path fill="#fff" d="M208.26,202.39A7.13,7.13,0,0,1,205,208c-1.79,1-3.24.21-3.24-1.85a7.13,7.13,0,0,1,3.24-5.58C206.81,199.51,208.26,200.34,208.26,202.39Z"/><path fill="#334866" d="M207,203.11a4.36,4.36,0,0,1-2,3.42,1.2,1.2,0,0,1-2-1.13,4.36,4.36,0,0,1,2-3.42A1.2,1.2,0,0,1,207,203.11Z"/><path fill="#fff" d="M197.69,208.88a7.13,7.13,0,0,1-3.24,5.58c-1.79,1-3.24.21-3.24-1.85a7.13,7.13,0,0,1,3.24-5.58C196.24,206,197.69,206.83,197.69,208.88Z"/><path fill="#334866" d="M196.43,209.61a4.36,4.36,0,0,1-2,3.42,1.2,1.2,0,0,1-2-1.13,4.36,4.36,0,0,1,2-3.42A1.2,1.2,0,0,1,196.43,209.61Z"/><path fill="#f21860" d="M210.52,218l-6.69-8.79h0c-0.54-.78-1.55-0.95-2.71-0.28a7,7,0,0,0-3.14,5.43c0,1.3.61,2.09,1.5,2.21h0Z"/><polygon fill="#5d779b" points="264 166.28 264 203.24 279.94 193.95 280.21 175.39 264 166.28"/><polygon fill="#b3f2ff" points="328 9.23 375.74 36.8 375.74 91.92 328 119.49 280.26 91.92 280.26 36.8 328 9.23"/><polygon fill="#18cef2" points="328 119.49 328 64.36 280.26 36.8 280.26 91.92 328 119.49"/><polygon fill="#8ae7fa" points="328 64.36 375.74 36.8 375.74 91.92 328 119.49 328 64.36"/><polygon fill="#8ae7fa" points="96 170.88 120.19 156.94 120 120.09 96 133.95 96 170.88"/><polygon fill="#18cef2" points="96 170.88 72.01 157.04 72 120.09 96 133.95 96 170.88"/><polygon fill="#18cef2" points="96 106.24 72 120.09 96 133.95 96 106.24"/><polygon fill="#b3f2ff" points="96 133.95 96 106.24 120 120.09 96 133.95"/><polygon fill="#af8afa" points="120 120.09 96 133.95 72 120.09 72.01 147.81 96 161.66 120 147.8 120 120.09"/><path fill="#fff" d="M102,142.89h0a13.54,13.54,0,0,1,6.14-10.6h0c3.39-2,6.14-.39,6.14,3.5h0C114.24,139.69,102,146.79,102,142.89Z"/><path fill="#334866" d="M104.12,140.91h0a8.76,8.76,0,0,1,4-6.86h0c2.2-1.27,4-.25,4,2.27h0C112.08,138.84,104.12,143.43,104.12,140.91Z"/><polygon fill="#8518f2" points="96 133.95 96 161.66 72.01 147.81 72 120.09 96 133.95"/><path fill="#f21860" d="M117,147.78l-6.7-3.86,0,0h0a1.44,1.44,0,0,0-1.38.14,4.44,4.44,0,0,0-2,3.43,1.37,1.37,0,0,0,.54,1.26h0l6.83,3.92,1.06-2.72,0.66,0.39Z"/><path fill="#ffb3cc" d="M115.62,147.93a1.22,1.22,0,0,1,2,1.13,4.4,4.4,0,0,1-2,3.43c-1.12.64-2,.13-2-1.13A4.44,4.44,0,0,1,115.62,147.93Z"/><path fill="#af8afa" d="M163.24,163.58a22.77,22.77,0,0,0-22.77-22.64h0a22.77,22.77,0,0,0-22.77,22.64s0,0,0,.07,0,0,0,.07v18.44h0c0,3.37,2.21,6.74,6.65,9.3,8.86,5.12,23.38,5.12,32.25,0,4.44-2.56,6.65-5.93,6.66-9.3h0V163.72s0,0,0-.07S163.24,163.6,163.24,163.58Z"/><path fill="#18cef2" d="M162.42,165.12a13.83,13.83,0,0,1-5.83,5.8c-8.87,5.12-23.38,5.12-32.25,0-4.26-2.46-6.45-5.67-6.61-8.91h0v6.59h0c0,3.38,2.21,6.75,6.65,9.32,8.86,5.12,23.38,5.12,32.25,0C162.58,174.47,164.51,169.54,162.42,165.12Z"/><path fill="#a3b7d6" d="M165.46,159.63l-3.95-2.32h0c-1.93-1.12-4.6-1-7.56.74-5.88,3.39-10.65,11.62-10.65,18.36,0,3.38,1.19,5.74,3.12,6.84l4,2.33-0.49-1.68a10.34,10.34,0,0,0,4.05-1.42c5.88-3.39,10.65-11.62,10.65-18.36a10.73,10.73,0,0,0-.55-3.54Z"/><path fill="#fff" d="M168.38,166.35c0,6.75-4.77,15-10.65,18.36s-10.65.68-10.65-6.07,4.77-15,10.65-18.36S168.38,159.6,168.38,166.35Z"/><path fill="#334866" d="M156.49,174a4.75,4.75,0,0,1-2.15,3.72,1.31,1.31,0,0,1-2.15-1.23,4.75,4.75,0,0,1,2.15-3.72A1.31,1.31,0,0,1,156.49,174Z"/><path fill="#334866" d="M164.59,169.23a4.75,4.75,0,0,1-2.15,3.72,1.31,1.31,0,0,1-2.15-1.23,4.75,4.75,0,0,1,2.15-3.72A1.31,1.31,0,0,1,164.59,169.23Z"/><polygon fill="#edf1f7" points="184 230.94 184 240.18 168 249.41 168 240.18 184 230.94"/><polygon fill="#edf1f7" points="168 240.18 128 217.08 144.03 207.83 184 230.94 168 240.18"/><polygon fill="#c8d4e6" points="168 249.41 168 240.18 128 217.08 128 226.31 168 249.41"/><polygon fill="#edf1f7" points="168.05 249.4 168.05 258.64 152.05 267.88 152.05 258.64 168.05 249.4"/><polygon fill="#edf1f7" points="152.05 258.64 112.05 235.55 128.08 226.29 168.05 249.4 152.05 258.64"/><polygon fill="#c8d4e6" points="152.05 267.88 152.05 258.64 112.05 235.55 112.05 244.77 152.05 267.88"/><polygon fill="#edf1f7" points="152 267.9 152 277.14 136 286.38 136 277.14 152 267.9"/><polygon fill="#edf1f7" points="136 277.14 96 254.05 112.03 244.79 152 267.9 136 277.14"/><polygon fill="#c8d4e6" points="136 286.38 136 277.14 96 254.05 96 263.27 136 286.38"/><polygon fill="#edf1f7" points="136.05 286.28 136.05 295.52 120.05 304.75 120.05 295.52 136.05 286.28"/><polygon fill="#edf1f7" points="120.05 295.52 80.05 272.42 96.08 263.17 136.05 286.28 120.05 295.52"/><polygon fill="#c8d4e6" points="120.05 304.75 120.05 295.52 80.05 272.42 80.05 281.65 120.05 304.75"/><polygon fill="#edf1f7" points="104.12 184.83 104.12 194.06 88.12 203.3 88.12 194.06 104.12 184.83"/><polygon fill="#edf1f7" points="88.12 194.06 48.12 170.97 64.15 161.72 104.12 184.83 88.12 194.06"/><polygon fill="#c8d4e6" points="88.12 203.3 88.12 194.06 48.12 170.97 48.12 180.2 88.12 203.3"/><polygon fill="#edf1f7" points="88.17 203.29 88.17 212.53 72.17 221.77 72.17 212.53 88.17 203.29"/><polygon fill="#edf1f7" points="72.17 212.53 32.17 189.44 48.2 180.18 88.17 203.29 72.17 212.53"/><polygon fill="#c8d4e6" points="72.17 221.77 72.17 212.53 32.17 189.44 32.17 198.66 72.17 221.77"/><polygon fill="#edf1f7" points="72.12 221.79 72.12 231.03 56.12 240.27 56.12 231.03 72.12 221.79"/><polygon fill="#edf1f7" points="56.12 231.03 16.12 207.94 32.15 198.68 72.12 221.79 56.12 231.03"/><polygon fill="#c8d4e6" points="56.12 240.27 56.12 231.03 16.12 207.94 16.12 217.16 56.12 240.27"/><polygon fill="#edf1f7" points="56.17 240.17 56.17 249.4 40.17 258.64 40.17 249.4 56.17 240.17"/><polygon fill="#edf1f7" points="40.17 249.4 .17 226.31 16.2 217.06 56.17 240.17 40.17 249.4"/><polygon fill="#c8d4e6" points="40.17 258.64 40.17 249.4 .17 226.31 .17 235.53 40.17 258.64"/><polygon fill="url(#a)" points="384.1 124.77 328 157.07 271.9 124.77 271.9 9.23 384.1 11.39 384.1 124.77" opacity=".5"/><polygon fill="url(#b)" points="384.1 124.77 328 157.07 328 36.95 384.1 4.68 384.1 124.77"/><g opacity=".6"><rect width="6" height="6" x="381" y="89" fill="#18cef2" opacity=".5"/><rect width="4" height="4" x="392" y="76.9" fill="#8518f2" opacity=".5" transform="translate(59.61 301.71) rotate(-45)"/><rect width="4" height="4" x="382" y="66.9" fill="#18cef2" opacity=".25" transform="translate(-5.1 40.54) rotate(-6)"/><rect width="4" height="4" x="312.2" y="120.53" fill="#18cef2" transform="translate(-11.09 33.53) rotate(-6)"/><rect width="4" height="4" x="270" y="99.61" fill="#18cef2" transform="translate(-9.14 29) rotate(-6)"/><rect width="4" height="4" x="273.75" y="86.15" fill="#18cef2" opacity=".6" transform="translate(6.1 193.5) rotate(-39.07)"/><rect width="4" height="4" x="260.95" y="78.34" fill="#18cef2" opacity=".25" transform="translate(8.16 183.68) rotate(-39.07)"/><rect width="4" height="4" x="368.71" y="104.37" fill="#18cef2" opacity=".25" transform="translate(15.85 257.42) rotate(-39.07)"/><rect width="3.29" height="3.29" x="266.61" y="66.93" fill="#8518f2" opacity=".25" transform="translate(524.2 174.16) rotate(-171.92)"/><rect width="3.29" height="3.29" x="372.5" y="25.87" fill="#f21860" opacity=".25" transform="translate(740.7 107.33) rotate(-171.92)"/><rect width="3.29" height="3.29" x="254.36" y="49.74" fill="#f21860" opacity=".25" transform="translate(502.24 138.24) rotate(-171.92)"/><rect width="3.29" height="3.29" x="390.41" y="43.05" fill="#18cef2" opacity=".25" transform="translate(773.93 144.03) rotate(-171.92)"/><rect width="3.29" height="3.29" x="272.03" y="28.71" fill="#18cef2" opacity=".25" transform="translate(540.37 98.87) rotate(-171.92)"/></g><polygon fill="#ffb3cc" points="103.95 110.83 96 115.47 96 106.24 103.95 110.83"/><polygon fill="#f21860" points="96 115.47 88.01 110.85 96 106.24 96 115.47"/><polygon fill="url(#c)" points="248 221.72 248 258.67 304 226.31 304.1 189.31 248 221.72"/><polygon fill="url(#d)" points="304.1 189.31 264 166.28 208.1 198.8 248 221.72 304.1 189.31"/><polygon fill="#8ae7fa" points="208 281.75 208 291 192 300.2 192 291 208 281.75"/><polygon fill="#18cef2" points="192 291 176 281.75 175.97 291 192 300.2 192 291"/><polygon fill="#b3f2ff" points="208 281.75 192 272.51 176 281.75 192 291 208 281.75"/><polygon fill="#af8afa" points="208 267.92 208 277.17 192 286.37 192 277.17 208 267.92"/><polygon fill="#8518f2" points="192 277.17 176 267.92 175.97 277.17 192 286.37 192 277.17"/><polygon fill="#ccb3ff" points="208 267.92 192 258.68 176 267.92 192 277.17 208 267.92"/><polygon fill="#c8d4e6" points="195.95 297.93 195.95 316.42 192 318.7 192 300.2 195.95 297.93"/><polygon fill="#5d779b" points="188.05 297.93 188.05 316.42 192 318.7 192 300.2 188.05 297.93"/><polygon fill="#fa8aae" points="224.01 78.54 224.01 87.8 208.01 97 208.01 87.8 224.01 78.54"/><polygon fill="#f21860" points="208.01 87.8 192.01 78.54 191.99 87.8 208.01 97 208.01 87.8"/><polygon fill="#ffb3cc" points="224.01 78.54 208.01 69.31 192.01 78.54 208.01 87.8 224.01 78.54"/><polygon fill="#af8afa" points="224.01 64.72 224.01 73.97 208.01 83.17 208.01 73.97 224.01 64.72"/><polygon fill="#8518f2" points="208.01 73.97 192.01 64.72 191.99 73.97 208.01 83.17 208.01 73.97"/><polygon fill="#ccb3ff" points="224.01 64.72 208.01 55.48 192.01 64.72 208.01 73.97 224.01 64.72"/><polygon fill="#c8d4e6" points="211.96 94.73 211.96 113.22 208.01 115.5 208.01 97 211.96 94.73"/><polygon fill="#5d779b" points="204.06 94.73 204.06 113.22 208.01 115.5 208.01 97 204.06 94.73"/><polygon fill="#8ae7fa" points="256.11 290.99 256.11 300.24 240.11 309.44 240.11 300.24 256.11 290.99"/><polygon fill="#18cef2" points="240.11 300.24 224.11 290.99 224.09 300.24 240.11 309.44 240.11 300.24"/><polygon fill="#b3f2ff" points="256.11 290.99 240.11 281.75 224.11 290.99 240.11 300.24 256.11 290.99"/><polygon fill="#c8d4e6" points="244.06 307.17 244.06 325.66 240.11 327.94 240.11 309.44 244.06 307.17"/><polygon fill="#5d779b" points="236.16 307.17 236.16 325.66 240.11 327.94 240.11 309.44 236.16 307.17"/><polygon fill="#8ae7fa" points="72 64.69 72.02 73.91 64.01 78.52 64.01 69.31 72 64.69"/><polygon fill="#18cef2" points="64.01 69.31 55.98 64.67 55.98 73.91 64.01 78.52 64.01 69.31"/><polygon fill="#b3f2ff" points="72 64.69 64.04 60.07 55.98 64.67 64.01 69.31 72 64.69"/><polygon fill="#8ae7fa" points="72 50.88 72.02 60.09 64.01 64.69 64.01 55.49 72 50.88"/><polygon fill="#18cef2" points="64.01 55.49 55.98 50.85 55.98 60.09 64.01 64.69 64.01 55.49"/><polygon fill="#b3f2ff" points="72 50.88 64.04 46.25 55.98 50.85 64.01 55.49 72 50.88"/><polygon fill="#8ae7fa" points="72 37.05 72.02 46.27 64.01 50.88 64.01 41.67 72 37.05"/><polygon fill="#18cef2" points="64.01 41.67 55.98 37.03 55.98 46.27 64.01 50.88 64.01 41.67"/><polygon fill="#b3f2ff" points="72 37.05 64.04 32.43 55.98 37.03 64.01 41.67 72 37.05"/><polygon fill="#c8d4e6" points="67.96 76.24 67.96 94.73 64.01 97.01 64.01 78.52 67.96 76.24"/><polygon fill="#5d779b" points="60.06 76.24 60.06 94.73 64.01 97.01 64.01 78.52 60.06 76.24"/></svg>