<svg xmlns="http://www.w3.org/2000/svg" xmlns:xlink="http://www.w3.org/1999/xlink" width="50" height="50" version="1.1" viewBox="0 0 50 50"><title>icon_nteract_download</title><desc>Created with Sketch.</desc><defs><filter id="filter-1" width="200%" height="200%" x="-50%" y="-50%" filterUnits="objectBoundingBox"><feOffset dx="0" dy="4" in="SourceAlpha" result="shadowOffsetOuter1"/><feGaussianBlur in="shadowOffsetOuter1" result="shadowBlurOuter1" stdDeviation="3"/><feColorMatrix in="shadowBlurOuter1" result="shadowMatrixOuter1" type="matrix" values="0 0 0 0 0.0980392157 0 0 0 0 0.176470588 0 0 0 0 0.28627451 0 0 0 0.6 0"/><feMerge><feMergeNode in="shadowMatrixOuter1"/><feMergeNode in="SourceGraphic"/></feMerge></filter></defs><g id="nteract-page" fill="none" fill-rule="evenodd" stroke="none" stroke-width="1"><g id="nteract-landing-page---1a" transform="translate(-241.000000, -421.000000)"><g id="hero"><g id="hero_content" transform="translate(230.000000, 166.000000)"><g id="download" transform="translate(0.000000, 250.000000)"><g id="button_download" filter="url(#filter-1)"><g id="icon_nteract_download" transform="translate(17.000000, 7.000000)"><polygon id="Fill-1" fill="#A3B7D6" points="19 30.973 31 38.071 31 15.071 19 8.243"/><polygon id="Fill-2" fill="#C8D4E6" points="7 15.071 7 38.071 19 30.973 19 8.244"/><polygon id="Fill-3" fill="#5D779B" points="19 0 0 11.571 3 13.071 19 3.872 35 13.071 35 35.571 38 33.571 38 10.969"/><polygon id="Fill-4" fill="#334866" points="0 34.571 3 36.071 3 13.071 0 11.572"/><polygon id="Fill-5" fill="#A3B7D6" points="3 36.071 7.001 38.071 7.001 15.07 3 13.071"/><polygon id="Fill-6" fill="#EDF1F8" points="3 13.071 7.001 15.071 19 8.243 31 15.071 31 38.071 35 35.571 35 13.071 19 3.872"/><polygon id="Fill-7" fill="#F98CAF" points="19 12.905 26.823 17.422 26.823 26.456 18.999 30.973 11.176 26.456 11.176 17.422"/><polygon id="Fill-8" fill="#F21860" points="19 30.973 19.001 21.938 11.177 17.422 11.177 26.456"/><polygon id="Fill-9" fill="#F21860" points="19 21.939 26.823 17.423 26.823 26.456 19 30.974"/><polygon id="Path" fill="#FFF" points="24.625 22.25 19.313 27.563 14 22.25 17.188 22.25 17.188 18 21.438 18 21.438 22.25"/></g></g></g></g></g></g></g></svg>